<svg xmlns="http://www.w3.org/2000/svg" viewBox="0 0 267 271.5"><circle cx="133.8" cy="135.5" r="123.6" fill="none" stroke="#000" stroke-width="6" stroke-miterlimit="10"/><path d="M154.7 114.3c-2 0-3.6 1.6-3.6 3.6v68.4c0 2 1.6 3.6 3.6 3.6s3.6-1.6 3.6-3.6v-68.4c0-2-1.6-3.6-3.6-3.6zm-42.8 0c-2 0-3.6 1.6-3.6 3.6v68.4c0 2 1.6 3.6 3.6 3.6s3.6-1.6 3.6-3.6v-68.4c.1-2-1.6-3.6-3.6-3.6z"/><path d="M80.8 104.3v89.2c0 5.3 1.9 10.2 5.3 13.8 3.4 3.6 8 5.6 12.9 5.6h68.5c4.9 0 9.6-2 12.9-5.6 3.4-3.6 5.3-8.5 5.3-13.8v-89.2c6.7-1.8 11.1-8.3 10.2-15.2-.9-6.9-6.8-12-13.7-12h-18.5v-4.5c0-3.8-1.5-7.5-4.2-10.1-2.7-2.7-6.4-4.2-10.2-4.2h-32.1c-3.8 0-7.5 1.5-10.2 4.2-2.7 2.7-4.2 6.3-4.2 10.1v4.5H84.4c-6.9 0-12.8 5.2-13.7 12-.9 6.9 3.4 13.4 10.1 15.2zm86.8 101.3H99.1c-6.2 0-11-5.3-11-12.1v-88.9h90.5v88.9c0 6.8-4.9 12.1-11 12.1zm-57.5-133c0-1.9.7-3.7 2.1-5 1.3-1.3 3.2-2.1 5-2h32.1c1.9 0 3.7.7 5 2 1.3 1.3 2.1 3.1 2.1 5v4.5h-46.3v-4.5zM84.4 84.3h97.9c3.6 0 6.5 2.9 6.5 6.5s-2.9 6.5-6.5 6.5H84.4c-3.6 0-6.5-2.9-6.5-6.5-.1-3.6 2.9-6.5 6.5-6.5z"/><path d="M133.3 114.3c-2 0-3.6 1.6-3.6 3.6v68.4c0 2 1.6 3.6 3.6 3.6s3.6-1.6 3.6-3.6v-68.4c0-2-1.6-3.6-3.6-3.6z"/></svg>