<svg xmlns="http://www.w3.org/2000/svg" viewBox="0 0 267 271.5"><path d="M197.1 72.5c-10.2-10.2-26.8-10.2-37 0l-85 85c-.2.2-.3.4-.5.7 0 .1-.1.1-.1.2s-.1.1-.1.2L63 203.7c-.2.8 0 1.7.6 2.3.6.6 1.5.8 2.3.6l45.1-11.5c.1 0 .1-.1.2-.1s.1-.1.2-.1c.3-.1.5-.3.7-.5l84.9-85c10.3-10.1 10.3-26.7.1-36.9zm-3.4 3.3c7.7 7.7 8.4 20 1.6 28.5l-30.1-30.1c8.5-6.7 20.8-6.1 28.5 1.6zm-32 1.7l30.3 30.3-8.5 8.5L153.2 86l8.5-8.5zM71.5 189.6c3.8 1.7 6.8 4.7 8.5 8.5L68.6 201l2.9-11.4zm13 7.3c-2.2-5.4-6.5-9.7-11.9-11.9l5.4-21.2 27.7 27.7-21.2 5.4zm25.9-7.5l-30.3-30.3 69.7-69.7 30.3 30.3-69.7 69.7z"/><circle cx="133.8" cy="135.5" r="123.6" fill="none" stroke="#000" stroke-width="6" stroke-miterlimit="10"/></svg>