<svg xmlns="http://www.w3.org/2000/svg" viewBox="0 0 848.28 268.2"><defs><style>.cls-1{fill:#86bdbf}</style></defs><g id="Layer_2" data-name="Layer 2"><g id="Layer_1-2" data-name="Layer 1"><path d="M206.22 202.39v25.06c0 7.83-2.88 14.32-9.14 19.16a17.83 17.83 0 0 1-11.08 3.85H31.35c-4.3 0-8.61.08-12.89-.21A17.6 17.6 0 0 1 7 244.69c-5-5-7-11.15-7-18.11v-77.2c0-22.62-.06-45.24 0-67.87 0-8.18 3.22-14.94 10.07-19.71a16.46 16.46 0 0 1 9.27-3.12c8-.1 16 0 24 0a5.41 5.41 0 0 1 .57.11c-1.13 1.19-2.16 2.29-3.21 3.38-2.11 2.21-4.21 4.42-6.37 6.58a2.45 2.45 0 0 1-1.46.53c-3.09.2-6.24 0-9.24.56-7 1.38-12.4 8.38-12.64 15.54a17 17 0 0 0 11 16.85 13.28 13.28 0 0 0 4.25.85c6.37.1 12.74.06 19.11.06h138.58a45.47 45.47 0 0 1 11.91 1.13 12.52 12.52 0 0 1 9 8.59 29.34 29.34 0 0 1 1.36 9.39v24.76h-1.59c-13.38 0-26.77.05-40.15 0-5.71 0-9.82 2.61-12.87 7.2a23.73 23.73 0 0 0-3.8 13.3c0 5.21-.2 10.42 0 15.62.28 6.55 2.51 12.35 7.81 16.59a13.45 13.45 0 0 0 8.79 2.74h40.17z"/><path class="cls-1" d="M77.9 91.7l66.28-66.3c2.61 2.52 5.22 5.06 7.86 7.59q10.38 9.94 20.78 19.89c2.72 2.61 5.45 5.23 8.1 7.93 4.65 4.74 4.63 13.63 0 18.48-3.65 3.83-7.32 7.63-11 11.47a2.79 2.79 0 0 1-2.24 1h-88.6zm52.93-79.12c-4 4-8 7.9-11.89 11.82-4.69 4.67-9.35 9.35-14 14L92.05 51.28l-14 14c-3.76 3.72-7.53 7.46-11.27 11.19-3.53 3.52-7 7.07-10.53 10.6-1.36 1.37-2.7 2.76-4.09 4.09a2 2 0 0 1-1.24.52H18.07c1.16-1.24 2.14-2.32 3.16-3.37q19.21-20 38.45-40Q70 37.63 80.36 26.9q10.71-11.14 21.37-22.36A14.06 14.06 0 0 1 122 4.12c2.9 2.78 5.79 5.54 8.83 8.46z"/><path d="M186 153.69c5.64 0 11.28.18 16.91-.06 6.08-.25 10.66 3.85 12.56 9a20.25 20.25 0 0 1 1.21 7.32c-.08 4 .16 8.12-.23 12.12-.53 5.3-2.88 9.72-7.92 12.13a11.1 11.1 0 0 1-4.58 1c-11.66.08-23.32-.14-35 .12-6.58.14-11-4.59-12.71-9.39a25.63 25.63 0 0 1-1-8.51c0-3.27-.11-6.55 0-9.81.28-5.56 3.67-11.83 9.59-13.53a13 13 0 0 1 3.3-.43c3-.06 5.93 0 8.9 0zm9.74 12.65a8.16 8.16 0 1 0 8.23 8.13 8.15 8.15 0 0 0-8.28-8.13zM184.82 58.66a18.13 18.13 0 0 1 12.45 3.94c6 4.76 8.77 11.16 8.94 18.74v6.25h-10.9c-.38-2.62-.59-5.18-1.15-7.67a12.43 12.43 0 0 0-5-7.7 1.42 1.42 0 0 1-.58-1A19.18 19.18 0 0 0 184.84 59l-.02-.34z"/><path class="cls-1" d="M421.81 148.21a19.26 19.26 0 0 1-13.19 5.15 12.53 12.53 0 0 1-9-3.19q-3.41-3.19-3.4-8.76L396.05 33l-39.35 98.52a38.25 38.25 0 0 1-12.57 2.48 25.25 25.25 0 0 1-8.65-1.65Q313.85 89.5 292.42 33l.21 90.86q0 16.89 3.29 26.58a12.36 12.36 0 0 1-8.44 2.88c-5.23 0-7.83-3.16-7.83-9.48V34.07q0-17.71-1.45-26Q281.71 5 293.86 5a20.15 20.15 0 0 1 6.9 1 14 14 0 0 1 5.05 3.3q24.93 59.53 43.47 103.22 15.87-39.71 40.59-105.23A40.09 40.09 0 0 1 404.09 5a25.53 25.53 0 0 1 9.37 1.65q4.23 1.65 4.84 3.91v113.13q0 15.47 3.51 24.52zm26.99 1.24a12.92 12.92 0 0 1-3.92-9.48 13.52 13.52 0 0 1 3.92-9.79 13.69 13.69 0 0 1 19.36 0 13.52 13.52 0 0 1 3.92 9.79 12.92 12.92 0 0 1-3.92 9.48 13.94 13.94 0 0 1-19.36 0zm56.65-14.73Q491 116.08 491 79t14.42-55.74q14.46-18.64 42.47-18.65t42.55 18.64Q605 41.91 605 79t-14.52 55.73q-14.52 18.65-42.55 18.64t-42.48-18.65zM572 129q7.83-15.76 7.83-50 0-34-7.83-49.86t-24.11-15.88q-16.07 0-23.89 15.87T516.17 79q0 34 7.83 49.85t23.89 15.87q16.28-.01 24.11-15.72zm55.83 20.45a12.91 12.91 0 0 1-3.91-9.48 13.51 13.51 0 0 1 3.91-9.79 13.7 13.7 0 0 1 19.37 0 13.51 13.51 0 0 1 3.91 9.79 12.91 12.91 0 0 1-3.91 9.48 13.95 13.95 0 0 1-19.37 0zM845.09 7.29q3.2 2.27 3.19 7 0 3.09-2.47 12.57L811.4 150.07a38.23 38.23 0 0 1-15.24 3.29 21.55 21.55 0 0 1-9-1.65 7.27 7.27 0 0 1-4.42-4.94L757 48.91l-27.18 101.16a40.66 40.66 0 0 1-14.82 3.29q-13 0-14.42-6.59L668.42 21.09a45.18 45.18 0 0 0-2.27-6.09 17.63 17.63 0 0 0-3.5-5.25q4.32-5.14 13.6-5.15 12.76 0 14.63 8.86l27.19 120.94 25.76-98.07a34.64 34.64 0 0 0 .61-5.77A18.83 18.83 0 0 0 743 23a31.83 31.83 0 0 1 7.83-2.58 41.32 41.32 0 0 1 8.24-.93q9.9 0 11.54 5.77l28.84 109.2L823.56 21.3c.13-.69.34-1.86.62-3.5a28.3 28.3 0 0 0 .41-4.54 10.36 10.36 0 0 0-1.44-6L827 6.05a28 28 0 0 1 8.34-1q6.56-.05 9.75 2.24z"/><path d="M330.66 249.65a4 4 0 0 1-2.7 1.08 2.42 2.42 0 0 1-1.85-.73 2.71 2.71 0 0 1-.7-2l-.15-45.2-18.39 37.86a5.83 5.83 0 0 1-2.48.54 4.25 4.25 0 0 1-1.93-.46q-7.48-13.52-19.7-37.55l.08 38.78a29.55 29.55 0 0 0 .77 7.88 2.73 2.73 0 0 1-2 .85c-1.23 0-1.85-.79-1.85-2.39l-.08-43.81a48.48 48.48 0 0 0-.46-7.8 4.19 4.19 0 0 1 2.93-.77 2.74 2.74 0 0 1 2.32 1q11.67 22.56 20.71 39.71 5.79-12 9.73-20.55 2.16-4.56 4.52-9.5t4.91-10.2A6.62 6.62 0 0 1 327 196a3.53 3.53 0 0 1 1.93.5 1.75 1.75 0 0 1 .85 1.27l.15 44.27a26.89 26.89 0 0 0 .73 7.61zm42.81-3.4q0 21.94-17.47 21.95a18.12 18.12 0 0 1-8.92-2.05 6.81 6.81 0 0 1-3.67-6.38 5.79 5.79 0 0 1 1-3.43 3.11 3.11 0 0 1 2.7-1.43 2.63 2.63 0 0 1 2.32 1 2.88 2.88 0 0 0-1.39 1.55 5.31 5.31 0 0 0-.39 1.93 5.24 5.24 0 0 0 2.47 4.83 11 11 0 0 0 5.8 1.5q6.79 0 10-4.86t3.17-15.07c0-1.08.05-2.86.16-5.33a15.46 15.46 0 0 1-5.14 7.49 13.56 13.56 0 0 1-8.54 2.71q-5.79 0-8.61-3.83T344 234.2v-15.45a29 29 0 0 0-.77-7.65 3.93 3.93 0 0 1 2.62-1.08 2.56 2.56 0 0 1 1.9.73 2.66 2.66 0 0 1 .73 2l.08 21.09q0 7.42 1.85 10.67a6.49 6.49 0 0 0 6.11 3.24 10.84 10.84 0 0 0 8.76-4.48c2.4-3 3.6-7.72 3.6-14.22q0-10.35-.12-13.28a18.36 18.36 0 0 0-.66-4.64 3.6 3.6 0 0 1 2.63-1.08 2.51 2.51 0 0 1 1.89.77 2.92 2.92 0 0 1 .74 2.09zm33.26-2.16q-5.14-6.87-5.14-20.78t5.14-20.79q5.13-6.87 14.87-6.87t14.87 6.87q5.14 6.89 5.14 20.79t-5.14 20.78Q431.33 251 421.6 251t-14.87-6.91zm29.86-20.78q0-25.11-15-25.11t-15 25.11q0 25 15 25t15-25zM485 249.65a4 4 0 0 1-2.7 1.08 2.66 2.66 0 0 1-1.93-.73 2.57 2.57 0 0 1-.78-2v-21.29q-.07-7-2.16-10.32T470.5 213a10.17 10.17 0 0 0-5.6 1.78 13 13 0 0 0-4.56 5.83 25.86 25.86 0 0 0-1.81 10.47q0 10.66.11 13.71a17.26 17.26 0 0 0 .74 4.83 3.58 3.58 0 0 1-2.63 1.08 2.58 2.58 0 0 1-2-.77 2.88 2.88 0 0 1-.73-2.08v-30.1a7.28 7.28 0 0 0-.58-3.06 1.77 1.77 0 0 0-1.66-.89 2.14 2.14 0 0 0-2.09 1.32 4 4 0 0 1-.85-2.17 2.43 2.43 0 0 1 1.08-2.08 4.93 4.93 0 0 1 2.94-.77q5.33 0 5.33 7.18v2.47a14.81 14.81 0 0 1 5.25-7.18 13.69 13.69 0 0 1 8.19-2.55q12.45 0 12.44 16.3V242a30.72 30.72 0 0 0 .93 7.65zm13.9-.92a8.35 8.35 0 0 1-1.74-5.64v-46.75a2.65 2.65 0 0 1 .73-2 2.77 2.77 0 0 1 2-.69 3.58 3.58 0 0 1 2.63 1.08 21.44 21.44 0 0 0-.62 4.79q-.15 3.24-.15 10.28v33.14q0 4.09 3 4.1a3.77 3.77 0 0 0 1.85-.47 2.76 2.76 0 0 0 1.24-1.31 3 3 0 0 1 .77 2.09 2.81 2.81 0 0 1-1.47 2.47 6.31 6.31 0 0 1-3.47.92 6 6 0 0 1-4.77-2.01zm18.92-46.79a3.55 3.55 0 0 1 2.51-6.06 3.55 3.55 0 0 1 3.56 3.55 3.55 3.55 0 0 1-6.07 2.51zm5.91 47.71a4 4 0 0 1-2.7 1.08 2.42 2.42 0 0 1-1.85-.73 2.71 2.71 0 0 1-.7-2l-.08-29.36a27.65 27.65 0 0 0-.77-7.57 3.58 3.58 0 0 1 2.63-1.08 2.51 2.51 0 0 1 1.85.69 2.72 2.72 0 0 1 .7 2L523 242a26.89 26.89 0 0 0 .73 7.65zm45.12 0a4 4 0 0 1-2.7 1.08 2.68 2.68 0 0 1-1.93-.73 2.56 2.56 0 0 1-.77-2v-21.29q-.09-7-2.17-10.32t-6.87-3.39a10.17 10.17 0 0 0-5.61 1.78 13.05 13.05 0 0 0-4.55 5.83 25.85 25.85 0 0 0-1.82 10.47q0 10.66.12 13.71a17 17 0 0 0 .73 4.83 3.58 3.58 0 0 1-2.63 1.08 2.58 2.58 0 0 1-2-.77 2.88 2.88 0 0 1-.73-2.08v-30.1a7.28 7.28 0 0 0-.58-3.06 1.77 1.77 0 0 0-1.66-.89 2.14 2.14 0 0 0-2.09 1.32 4.09 4.09 0 0 1-.85-2.17 2.43 2.43 0 0 1 1.08-2.08 5 5 0 0 1 2.94-.77q5.33 0 5.33 7.18v2.47a14.82 14.82 0 0 1 5.26-7.18 13.65 13.65 0 0 1 8.19-2.55Q568 210 568 226.32V242a31.22 31.22 0 0 0 .85 7.65zm40.56-7.57a4.74 4.74 0 0 1-.46 2 9.89 9.89 0 0 1-5 5.1 18.78 18.78 0 0 1-8.39 1.78q-8.26 0-12.86-5.18t-4.6-15q0-9.74 4.64-15.26t13.31-5.52q6.11 0 9.77 2.86a9.57 9.57 0 0 1 3.67 8 9.68 9.68 0 0 1-4.63 8.69q-4.64 3-13.22 3A61.48 61.48 0 0 1 583 232q.39 8.26 4.06 11.9a12.87 12.87 0 0 0 9.46 3.63 15.19 15.19 0 0 0 7.53-1.78 8.76 8.76 0 0 0 4.29-5.25 1.56 1.56 0 0 1 1.07 1.58zm-22.86-25.18q-3.48 4.4-3.56 12.74 3 .39 7.65.54 14 0 14-9.73 0-4.24-2.54-6.11a10.4 10.4 0 0 0-6.26-1.85 11.19 11.19 0 0 0-9.29 4.41zM699 197.89a5.63 5.63 0 0 1-.27 1.47 13.2 13.2 0 0 0-.35 1.39l-13.91 49.13a6.62 6.62 0 0 1-3.09.85q-2.62 0-3.09-1.77l-12.13-41.1-12.51 42a7 7 0 0 1-3.09.85c-1.86 0-2.94-.59-3.25-1.77l-13.41-49.12a8.85 8.85 0 0 0-1.62-3.09 4.23 4.23 0 0 1 2.86-1.08 3.91 3.91 0 0 1 2 .46 2.11 2.11 0 0 1 1 1.39L651 246.56l12.36-41.8a5.39 5.39 0 0 0 .23-1.46 3.19 3.19 0 0 0-.31-1.47 6.32 6.32 0 0 1 3.09-.77 2.61 2.61 0 0 1 2.25.85l13.21 44.65 11.89-46.82a10.5 10.5 0 0 0 .39-2.16 2.92 2.92 0 0 0-.31-1.47 6 6 0 0 1 2.4-.38c1.88 0 2.8.72 2.8 2.16zm42.76 49.45a2.87 2.87 0 0 1-1.39 2.43 5.72 5.72 0 0 1-3.32 1q-6 0-6-8.26v-4.25a22.58 22.58 0 0 1-7.22 9.23 16.52 16.52 0 0 1-9.93 3.36 9.47 9.47 0 0 1-7-2.43 8.63 8.63 0 0 1-2.48-6.45 10.15 10.15 0 0 1 3.29-7.57 20.88 20.88 0 0 1 9.23-4.79 41.75 41.75 0 0 1 10.51-1.32c.77 0 1.88.05 3.32.16v-2q0-7-2.63-10.47t-8.42-3.44a12.67 12.67 0 0 0-6.37 1.51 5.26 5.26 0 0 0-2.67 5 6.38 6.38 0 0 0 .93 3.28 4.55 4.55 0 0 0 2.63 2.13 3.48 3.48 0 0 1-3 1.39 4.33 4.33 0 0 1-3.67-2 7.7 7.7 0 0 1-1.43-4.56 7.56 7.56 0 0 1 3.75-6.87q3.75-2.33 10.39-2.32 7.72 0 11.44 4.09t3.7 12.52v16.3c0 2.73 1 4.1 2.86 4.1a2.85 2.85 0 0 0 1.47-.47 3.34 3.34 0 0 0 1.24-1.31 3 3 0 0 1 .77 2.01zM722.52 245a20.57 20.57 0 0 0 5.91-6.41 16.36 16.36 0 0 0 2.44-8.12l-1.86-.07a45.42 45.42 0 0 0-6.06.42 24.36 24.36 0 0 0-5.22 1.2 14.25 14.25 0 0 0-6.18 3.63 7.76 7.76 0 0 0-2.16 5.48 6.85 6.85 0 0 0 1.5 4.52 5.75 5.75 0 0 0 4.68 1.82 12.18 12.18 0 0 0 6.95-2.47zm28.48 3.73a8.35 8.35 0 0 1-1.74-5.64v-46.75a2.66 2.66 0 0 1 .74-2 2.75 2.75 0 0 1 2-.69 3.6 3.6 0 0 1 2.63 1.08 21.44 21.44 0 0 0-.62 4.79q-.16 3.24-.16 10.28v33.14q0 4.09 3 4.1a3.82 3.82 0 0 0 1.85-.47 2.76 2.76 0 0 0 1.24-1.31 3 3 0 0 1 .77 2.09 2.81 2.81 0 0 1-1.47 2.47 6.37 6.37 0 0 1-3.48.92 6 6 0 0 1-4.76-2.01zm20.23 0a8.4 8.4 0 0 1-1.73-5.64v-46.75a2.65 2.65 0 0 1 .73-2 2.77 2.77 0 0 1 2-.69 3.6 3.6 0 0 1 2.63 1.08 21.44 21.44 0 0 0-.62 4.79q-.16 3.24-.16 10.28v33.14q0 4.09 3 4.1a3.8 3.8 0 0 0 1.85-.47 2.76 2.76 0 0 0 1.24-1.31 3 3 0 0 1 .77 2.09 2.81 2.81 0 0 1-1.47 2.47 6.36 6.36 0 0 1-3.47.92 6 6 0 0 1-4.77-2.01zm46.86-6.65a4.74 4.74 0 0 1-.46 2 9.89 9.89 0 0 1-5 5.1 18.78 18.78 0 0 1-8.39 1.78q-8.26 0-12.86-5.18t-4.6-15q0-9.74 4.64-15.26t13.31-5.52q6.09 0 9.77 2.86a9.57 9.57 0 0 1 3.67 8 9.69 9.69 0 0 1-4.64 8.69q-4.63 3-13.21 3a61.38 61.38 0 0 1-8.65-.62q.39 8.26 4.06 11.9a12.87 12.87 0 0 0 9.46 3.63 15.22 15.22 0 0 0 7.53-1.78 8.76 8.76 0 0 0 4.29-5.25 1.56 1.56 0 0 1 1.08 1.65zm-22.87-25.18q-3.47 4.4-3.55 12.74 3 .39 7.65.54 14 0 14-9.73 0-4.24-2.55-6.11a10.37 10.37 0 0 0-6.25-1.85 11.22 11.22 0 0 0-9.3 4.41zm46.4-5.9c1.1 0 2-.11 2.74-.16l-.08 1.47a1.9 1.9 0 0 1-.42 1.08 1.14 1.14 0 0 1-.89.39h-8.42V217l-.08 26a4.53 4.53 0 0 0 1 3.13 3.64 3.64 0 0 0 2.86 1.12 5.49 5.49 0 0 0 2.32-.5 3.31 3.31 0 0 0 1.55-1.35 3.62 3.62 0 0 1 .77 2.08 2.76 2.76 0 0 1-1.66 2.47 8.55 8.55 0 0 1-4.21.93 7 7 0 0 1-5.26-2 7.82 7.82 0 0 1-1.93-5.64v-29.51h-1.08a32 32 0 0 0-4.63.23l.07-1.47a1.9 1.9 0 0 1 .43-1.08 1.21 1.21 0 0 1 1-.39h4.25v-7.57a2.58 2.58 0 0 1 .78-2 2.77 2.77 0 0 1 2-.73 3.58 3.58 0 0 1 2.63 1.08 13.65 13.65 0 0 0-.54 3.24c-.1 1.39-.18 3.38-.23 6h4.33c.68-.04 1.59-.04 2.7-.04z"/></g></g></svg>