<?xml version="1.0" encoding="utf-8"?>
<!-- Generator: Adobe Illustrator 23.0.1, SVG Export Plug-In . SVG Version: 6.00 Build 0)  -->
<svg version="1.1" id="Layer_1" focusable="false" xmlns="http://www.w3.org/2000/svg" xmlns:xlink="http://www.w3.org/1999/xlink"
	 x="0px" y="0px" viewBox="0 0 496 512" style="enable-background:new 0 0 496 512;" xml:space="preserve">
<style type="text/css">
	.st0{fill:#FFFFFF;}
</style>
<path class="st0" d="M248,8C111,8,0,119,0,256s111,248,248,248s248-111,248-248S385,8,248,8z M248,456c-110.3,0-200-89.7-200-200
	S137.7,56,248,56s200,89.7,200,200S358.3,456,248,456z M168,240c17.7,0,32-14.3,32-32s-14.3-32-32-32s-32,14.3-32,32
	S150.3,240,168,240z M328,240c17.7,0,32-14.3,32-32s-14.3-32-32-32s-32,14.3-32,32S310.3,240,328,240z M344,256H152
	c-26.5,0-48,21.5-48,48v32c0,26.5,21.5,48,48,48h192c26.5,0,48-21.5,48-48v-32C392,277.5,370.5,256,344,256z M176,352h-24
	c-8.8,0-16-7.2-16-16v-8h40V352z M176,312h-40v-8c0-8.8,7.2-16,16-16h24V312z M240,352h-48v-24h48V352z M240,312h-48v-24h48V312z
	 M304,352h-48v-24h48V352z M304,312h-48v-24h48V312z M360,336c0,8.8-7.2,16-16,16h-24v-24h40V336z M360,312h-40v-24h24
	c8.8,0,16,7.2,16,16V312z"/>
</svg>
